<svg width="75" height="71" viewBox="0 0 75 71" fill="none" xmlns="http://www.w3.org/2000/svg">
<path d="M52.3199 45.5489L50.4241 47.4408C50.4241 47.4408 45.9116 51.9347 33.5992 39.6642C21.2868 27.3936 25.7992 22.8997 25.7992 22.8997L26.9909 21.7052C29.9367 18.7733 30.2159 14.0622 27.645 10.6208L22.3951 3.59171C19.2118 -0.668326 13.066 -1.23215 9.42017 2.4014L2.87855 8.91675C1.07439 10.721 -0.133932 13.0515 0.0118999 15.6409C0.386897 22.269 3.37854 36.5234 20.0618 53.1543C37.7575 70.7875 54.3615 71.4891 61.149 70.8543C63.299 70.6538 65.1656 69.5596 66.6698 68.056L72.5864 62.1588C76.5864 58.1786 75.4614 51.35 70.3448 48.5643L62.3865 44.2249C59.0282 42.3956 54.9449 42.9344 52.3199 45.5489Z" fill="#FFBB5C"/>
</svg>
